<svg aria-hidden="true" style="position:absolute;width:0;height:0" xmlns="http://www.w3.org/2000/svg" overflow="hidden"><defs><symbol id="ico_instagram" viewBox="0 0 32 32"><path d="M16 0c-4.3 0-4.9 0-6.6.1S6.5.4 5.5.8c-1.1.4-1.9 1-2.8 1.8S1.2 4.5.8 5.5C.4 6.5.1 7.7.1 9.4 0 11.1 0 11.7 0 16s0 4.9.1 6.6c.1 1.7.3 2.9.7 3.9.4 1.1 1 1.9 1.8 2.8.9.9 1.8 1.4 2.8 1.8s2.2.7 3.9.7c1.8.2 2.4.2 6.7.2s4.9 0 6.6-.1c1.7-.1 2.9-.3 3.9-.7 1.1-.4 1.9-1 2.8-1.8.9-.9 1.4-1.8 1.8-2.8s.7-2.2.7-3.9c.2-1.8.2-2.4.2-6.7s0-4.9-.1-6.6c-.1-1.7-.3-2.9-.7-3.9-.4-1.1-1-1.9-1.8-2.8-.9-.9-1.8-1.4-2.8-1.8S24.4.2 22.7.2C20.9 0 20.3 0 16 0zm0 2.9c4.3 0 4.8 0 6.5.1 1.6.1 2.4.3 3 .6.7.3 1.3.6 1.8 1.2.6.6.9 1.1 1.2 1.8.2.5.5 1.4.5 2.9.1 1.7.1 2.2.1 6.5s0 4.8-.1 6.5c-.1 1.6-.3 2.4-.6 3-.3.7-.6 1.3-1.2 1.8-.6.6-1.1.9-1.8 1.2-.6.2-1.4.5-3 .6-1.7.1-2.2.1-6.5.1s-4.8 0-6.5-.1c-1.6-.1-2.4-.3-3-.6-.8-.3-1.3-.6-1.8-1.2-.6-.6-.9-1.1-1.2-1.8-.2-.6-.5-1.4-.6-3-.1-1.7-.1-2.2-.1-6.5s0-4.8.1-6.5c.1-1.6.3-2.4.6-3 .3-.8.6-1.3 1.2-1.8.6-.6 1.1-.9 1.8-1.2.6-.2 1.4-.5 3-.6 1.8 0 2.3-.1 6.6 0zm0 4.9c-4.5 0-8.2 3.7-8.2 8.2s3.7 8.2 8.2 8.2c4.5 0 8.2-3.7 8.2-8.2S20.5 7.8 16 7.8zm0 13.5c-2.9 0-5.3-2.4-5.3-5.3s2.4-5.3 5.3-5.3 5.3 2.4 5.3 5.3-2.4 5.3-5.3 5.3zM26.5 7.5c0 1.1-.9 1.9-1.9 1.9-1.1 0-1.9-.9-1.9-1.9s.9-1.9 1.9-1.9c1-.1 1.9.8 1.9 1.9z"/></symbol><symbol id="ico_discord" viewBox="0 0 32 32"><path d="M27 0c1.9 0 3.4 1.5 3.5 3.3V32l-3.6-3-2-1.8-2.1-1.9.9 2.9H4.9c-1.9 0-3.4-1.4-3.4-3.3V3.3C1.6 1.5 3.1 0 5 0h22zm-8.2 7.6l-.3.3c2.8.8 4.1 2 4.1 2-1.8-.9-3.4-1.3-5-1.5-1.2-.2-2.3-.1-3.3 0H14c-.6 0-2 .3-3.7 1-.6.3-1 .4-1 .4s1.3-1.3 4.3-2l-.2-.2s-2.2-.1-4.6 1.7c0 0-2.4 4.2-2.4 9.4 0 0 1.3 2.3 5 2.4 0 0 .5-.7 1.1-1.3-2.1-.6-2.9-1.9-2.9-1.9s.2.1.4.3h.3c.4.2.9.4 1.2.5.6.3 1.4.5 2.4.7 1.2.2 2.7.3 4.3 0 .8-.2 1.6-.4 2.4-.7.5-.3 1.2-.5 1.9-1 0 0-.8 1.2-2.9 1.9.4.6 1.1 1.3 1.1 1.3 3.7-.1 5.1-2.4 5.2-2.3 0-5.2-2.4-9.4-2.4-9.4-2.4-1.5-4.4-1.6-4.7-1.6zm.2 5.9c.9 0 1.7.8 1.7 1.8s-.8 1.8-1.7 1.8-1.7-.8-1.7-1.8.8-1.8 1.7-1.8zm-6 0c.9 0 1.7.8 1.7 1.8s-.8 1.8-1.7 1.8-1.7-.8-1.7-1.8.7-1.8 1.7-1.8z"/></symbol><symbol id="ico_facebook" viewBox="0 0 32 32"><path d="M32 16c0-8.8-7.2-16-16-16S0 7.2 0 16c0 8 5.9 14.6 13.5 15.8V20.6H9.4V16h4.1v-3.5c0-4 2.4-6.2 6-6.2 1.8 0 3.6.3 3.6.3v3.9h-2c-2 0-2.6 1.2-2.6 2.5v3h4.4l-.7 4.6h-3.7v11.2C26.1 30.6 32 24 32 16z"/></symbol><symbol id="ico_hatenabookmark" viewBox="0 0 32 32"><path d="M19.3 16.9c-1.1-1.2-2.5-1.9-4.4-2 1.7-.5 2.9-1.1 3.7-2s1.1-2.1 1.1-3.6c0-1.1-.2-2.2-.8-3.2-.5-.9-1.3-1.7-2.3-2.2-.9-.5-1.9-.8-3.1-1s-3.3-.3-6.3-.3H0v26.6h7.5c3 0 5.2-.1 6.5-.3s2.5-.6 3.4-1c1.1-.6 2-1.4 2.6-2.5s.9-2.3.9-3.8c0-1.9-.5-3.5-1.6-4.7zM6.8 8.6h1.6c1.8 0 3 .2 3.6.6s.9 1.1.9 2.1-.3 1.6-1 2c-.7.4-1.9.6-3.7.6H6.8V8.6zm6.1 15.3c-.7.4-1.9.6-3.6.6H6.8v-5.8h2.7c1.8 0 3 .2 3.6.7s1 1.2 1 2.3c-.1 1.1-.4 1.7-1.2 2.2zm15.7-1.3c-1.9 0-3.4 1.5-3.4 3.4s1.5 3.4 3.4 3.4S32 27.8 32 26c0-1.9-1.5-3.4-3.4-3.4zM25.7 2.7h5.9v17.8h-5.9V2.7z"/></symbol><symbol id="ico_line" viewBox="0 0 32 32"><path d="M25.8 13.2c.5 0 .8.4.8.8 0 .5-.4.8-.8.8h-2.3v1.5h2.3c.5 0 .8.4.8.8 0 .5-.4.8-.8.8h-3.2c-.5 0-.8-.4-.8-.8v-6.4c0-.5.4-.8.8-.8h3.2c.5 0 .8.4.8.8 0 .5-.4.8-.8.8h-2.3V13c0 .2 2.3.2 2.3.2zm-5.1 4c0 .4-.2.7-.6.8h-.3c-.3 0-.5-.1-.7-.3l-3.3-4.4v3.9c0 .5-.4.8-.8.8-.5 0-.8-.4-.8-.8v-6.4c0-.4.2-.7.6-.8h.3c.3 0 .5.1.7.3l3.3 4.4v-3.9c0-.5.4-.8.8-.8.5 0 .8.4.8.8v6.4zm-7.7 0c0 .5-.4.8-.8.8-.5 0-.8-.4-.8-.8v-6.4c0-.5.4-.8.8-.8.5 0 .8.4.8.8v6.4zm-3.3.8H6.6c-.5 0-.8-.4-.8-.8v-6.4c0-.5.4-.8.8-.8.5 0 .8.4.8.8v5.5h2.3c.5 0 .8.4.8.8.1.5-.3.9-.8.9zM32 13.8c0-7.2-7.2-13-16-13S0 6.6 0 13.8c0 6.4 5.7 11.8 13.4 12.8.5.1 1.2.3 1.4.8.2.4.1 1 .1 1.4l-.2 1.4c-.1.4-.3 1.6 1.4.9s9.2-5.4 12.6-9.3c2.2-2.6 3.3-5.2 3.3-8z"/></symbol><symbol id="ico_twitter" viewBox="0 0 32 32"><path d="M31.9 6.1c-1.2.5-2.4.9-3.8 1 1.4-.8 2.4-2.1 2.9-3.6-1.3.7-2.7 1.3-4.2 1.6C25.7 3.8 24 3 22.1 3c-3.6 0-6.6 2.9-6.6 6.6 0 .5.1 1 .2 1.5-5.4-.3-10.3-2.9-13.5-6.9-.6 1-.9 2.1-.9 3.3 0 2.3 1.2 4.3 2.9 5.5-1.1 0-2.1-.3-3-.8v.1c0 3.2 2.3 5.8 5.3 6.4-.6.1-1.1.2-1.7.2-.4 0-.8 0-1.2-.1.8 2.6 3.3 4.5 6.1 4.6-2.2 1.8-5.1 2.8-8.1 2.8-.5 0-1 0-1.6-.1C2.9 27.9 6.4 29 10.1 29c12.1 0 18.7-10 18.7-18.6v-.8c1.2-1 2.3-2.2 3.1-3.5z"/></symbol></defs></svg>