<svg xmlns="http://www.w3.org/2000/svg" viewBox="0 0 839.7 192.5"><path d="M289.6 76.7v-2.8c0-3.7-2.4-6.5-11-6.5-4.6 0-12.7 1-18 2.5V56.6c7.3-1.5 15.9-2.3 22-2.3 14.3 0 23.1 6.9 23.1 20.7v36.2H292l-1.2-5.4h-.4c-6 4.2-11.6 6.3-17.1 6.3-9.7 0-17.4-6.1-17.4-18.1 0-10.2 7.5-17.2 21.6-17.2l12.1-.1zm0 10.5h-9.2c-5.7 0-8.2 1.9-8.2 5.4 0 4 2.8 6 6.7 6 3.9 0 7.8-1.2 10.7-2.9v-8.5zm53.2 25.1c-16.5 0-28.5-9.2-28.5-29s12-29.1 28.5-29.1 28.6 9.5 28.6 29.1c-.1 19.5-12.2 29-28.6 29zm.1-44.3c-8.7 0-12 5.4-12 15.3s3.3 15.3 12 15.3 11.9-5.3 11.9-15.3S351.5 68 342.9 68zm-62.1 105.9l-10.1-38.1h-.6v37.9h-11.3v-51.8h19l9.9 37.9h.7l10.1-37.9H317v51.8h-11.2v-37.9h-.6l-10.5 38.1h-13.9zm57.1-44.1h-11.8v-10.2h11.8v10.2zm-.2 44h-11.5v-39.7h11.5v39.7zm32.8 0v-26.3c0-2.6-.9-3.9-3.7-3.9-2.6 0-6.1 1.4-9.1 2.9v27.2h-11.5V134H357v4h.3c4.7-2.9 9.2-4.8 13.1-4.8 7 0 11.7 3.3 11.7 12v28.5l-11.6.1zm54.2-1.7c-5.5 1.6-10.6 2.5-16.1 2.5-13.3 0-20.3-6.5-20.3-20.7 0-14.1 7.7-20.7 19.4-20.7 13.8 0 17.6 8.7 17.6 18.7v5.1h-25c.1 5.7 4.3 7.6 11.2 7.6 3.2 0 8.7-1 13.2-2.3v9.8zm-11-23.2c-.1-3-1.1-6.7-6.7-6.7-4.3 0-6.8 3.2-6.8 6.7h13.5zm49 14.1v9.9c-4.1 1.2-7.9 1.7-12.5 1.7-9.9 0-20.1-4.4-20.1-20.7s10.2-20.7 20.1-20.7c4.6 0 8.4.5 12.5 1.7v9.9c-3.5-1.1-7.2-1.7-10.6-1.7-6.5 0-10.3 2.6-10.3 10.7 0 6.3 3 10.7 10.3 10.7 3.4.2 7.1-.5 10.6-1.5zm32-17.3c-4.8.8-8.7 2.2-13.5 3.8v24.3h-11.5v-39.7h10.9v6.2c4-2.6 8.3-6.3 14.2-6.4v11.8zm26.5 3.5v-2c0-2.7-1.7-4.6-7.8-4.6-3.3 0-9.1.7-12.8 1.8v-9.5c5.2-1.1 11.3-1.7 15.7-1.7 10.2 0 16.5 4.9 16.5 14.8v25.8H523l-.9-3.9h-.3c-4.3 3-8.3 4.5-12.2 4.5-6.9 0-12.4-4.3-12.4-12.9 0-7.3 5.3-12.2 15.4-12.2l8.6-.1zm0 7.5h-6.5c-4 0-5.8 1.4-5.8 3.9 0 2.9 2 4.3 4.8 4.3s5.5-.9 7.6-2.1l-.1-6.1zm44.6-28.8c-2.6-.4-4.6-.5-6-.5-4.7 0-5.8 1.2-5.8 4.5v2.2h10.6v9.7h-10.2v29.9H543v-29.9h-4.8V135l4.8-.9v-4.3c0-8.8 4.1-11.9 13.2-11.9 2.7 0 6 .2 9.6.7v9.3zm17.1 32.5c0 3.2 2.2 4 4.8 4 1.7 0 3.6-.4 5.3-.7v9.6c-3.3.7-8 1.2-11.2 1.2-5.4 0-10.3-1.7-10.3-9.9v-20.8h-4.8V136l11.4-10.8h5v8.9h11.5v9.7h-11.5l-.2 16.6zm57.5-2c0-4.9-5.2-5.1-10.8-6.1-6.8-1.1-14.3-3.5-14.3-15.3 0-13.1 10.6-16 20.7-16 5.1 0 9.8.7 14.3 1.1v10.4c-4-.6-9.3-1.4-13.9-1.4-6.9 0-9 2.4-9 5.5 0 4.2 4.1 4.7 9.1 5.5 7.6 1.1 16.2 2.4 16.2 15.7 0 12.5-9.1 16.8-20.5 16.8-6.1 0-11.3-.7-16.1-1.7v-10.4c5.1.9 10.7 1.9 15.2 1.9 6 .2 9.1-2 9.1-6zm53.1 13.7c-5.5 1.6-10.6 2.5-16.1 2.5-13.3 0-20.3-6.5-20.3-20.7 0-14.1 7.7-20.7 19.4-20.7 13.8 0 17.6 8.7 17.6 18.7v5.1h-25c.1 5.7 4.3 7.6 11.2 7.6 3.2 0 8.7-1 13.2-2.3v9.8zm-11-23.2c-.1-3-1.2-6.7-6.7-6.7-4.3 0-6.8 3.2-6.8 6.7h13.5zm43.5-3.2c-4.8.8-8.7 2.2-13.5 3.8v24.3H701v-39.7h10.9v6.2c4-2.6 8.3-6.3 14.2-6.4v11.8zm13.3-11.6l8 27.1h.4l7.8-27.1h12l-12.8 39.7h-14.9L727 134.1h12.3zm67 38c-5.5 1.6-10.6 2.5-16.1 2.5-13.3 0-20.3-6.5-20.3-20.7 0-14.1 7.7-20.7 19.4-20.7 13.8 0 17.6 8.7 17.6 18.7v5.1h-25c.1 5.7 4.3 7.6 11.2 7.6 3.2 0 8.7-1 13.2-2.3v9.8zm-11-23.2c-.1-3-1.2-6.7-6.7-6.7-4.3 0-6.8 3.2-6.8 6.7h13.5zm43.5-3.2c-4.8.8-8.7 2.2-13.5 3.8v24.3h-11.5v-39.7h10.9v6.2c4-2.6 8.3-6.3 14.2-6.4v11.8zm-667.7 16.1s13 14.8 29.4 14.4 27.3-9.3 32.9-19.2 6.3-22 6.5-31.6 0-21.3 0-26.5-1.9-44.7-1.9-44.7l12 5.9-9.1-17.3 19-4.6-18.1-7.3 11.6-15.7-18.6 6-1.2-19.5-10.4 16.5-13.5-14.1 2.7 19.3-19.4-2.2 14.5 13.1-16.3 10.8 19.5.7-5.5 18.7 11.6-9.1.9 19.3s2.1 40.6.9 55.1-4.2 20.9-12.3 24.3-15.8-3-15.8-3-3.8-3.7-4.8-4.8c-1-1.1-2.5-3.2-2.5-3.2 1.1-1.4 2-2.8 2.9-4.2 1.2-2.6 1.6-5.4 1-8.2-.9-4.1-3.6-6.7-7-8.8l-1.8-1.2c-.7-.4 1.3-7.7 1.5-8.5.9-3.7 1.4-7.4 1.7-11.2.4-7.9-.3-15.8-1.9-23.5-3.3-15.5-10.5-30-20.9-42-4.4-5-9.3-9.5-14.6-13.4C117.2 2.9 79.5-.1 50 14.7S.5 61.6 0 94.6s18.7 65.6 47.8 81.2c28.3 15.2 67.4 14.5 93.9-4.7 2.5-1.8 5.1-3.7 7.6-5.6-.1.1 5.9 3.3 6.6 3.5 2.5.8 5.1.8 7.6 0 3.4-1.2 6.1-3.9 7.6-7.2z"/></svg>