<?xml version="1.0" standalone="no"?>
<!DOCTYPE svg PUBLIC "-//W3C//DTD SVG 20010904//EN"
 "http://www.w3.org/TR/2001/REC-SVG-20010904/DTD/svg10.dtd">
<svg version="1.0" xmlns="http://www.w3.org/2000/svg"
 width="1251.000000pt" height="1251.000000pt" viewBox="0 0 1251.000000 1251.000000"
 preserveAspectRatio="xMidYMid meet">
<metadata>
Created by potrace 1.11, written by Peter Selinger 2001-2013
</metadata>
<g transform="translate(0.000000,1251.000000) scale(0.100000,-0.100000)"
fill="#000000" stroke="none">
<path d="M0 6250 l0 -6250 6250 0 6250 0 0 6250 0 6250 -6250 0 -6250 0 0
-6250z m10596 3454 c14 -219 26 -400 28 -401 1 -1 172 53 381 121 209 68 382
122 384 120 2 -2 -103 -148 -234 -325 -130 -177 -233 -325 -228 -329 4 -4 168
-71 363 -150 195 -79 359 -146 363 -150 5 -4 -135 -42 -310 -85 -476 -115
-458 -110 -455 -126 2 -8 84 -166 183 -353 99 -186 178 -340 176 -343 -2 -2
-111 49 -241 113 -130 65 -239 114 -243 110 -4 -3 5 -296 21 -649 54 -1273 63
-1697 47 -2217 -16 -502 -36 -696 -96 -935 -111 -443 -332 -775 -664 -996
-645 -432 -1404 -347 -1997 223 -56 54 -104 98 -107 98 -3 0 -20 -24 -37 -52
-111 -181 -258 -269 -450 -269 -115 -1 -191 25 -320 106 l-103 66 -56 -45
c-827 -664 -1907 -953 -2958 -790 -1109 171 -2093 834 -2669 1800 -262 438
-434 938 -506 1467 -30 220 -32 707 -5 922 81 619 287 1170 631 1680 239 354
588 711 952 971 524 373 1199 618 1861 675 182 15 645 6 798 -15 453 -64 847
-186 1230 -381 386 -196 698 -426 1010 -746 577 -591 931 -1334 1042 -2184 26
-200 26 -712 0 -905 -26 -194 -74 -430 -113 -562 -4 -13 18 -33 93 -81 54 -35
120 -87 146 -116 98 -105 149 -270 128 -410 -14 -86 -37 -142 -108 -254 l-55
-88 27 -42 c89 -136 247 -287 387 -370 194 -115 411 -119 618 -11 133 69 225
166 295 309 78 159 115 341 136 665 16 238 16 1196 1 1575 -19 456 -62 1457
-65 1489 -2 27 -9 23 -241 -158 -132 -102 -241 -184 -243 -182 -2 2 46 174
106 382 61 207 109 380 105 383 -5 6 -544 29 -711 30 -46 1 -83 4 -83 9 0 4
149 106 330 226 182 121 330 222 330 225 0 3 -133 125 -294 271 -162 146 -293
267 -291 269 3 2 180 -16 395 -39 214 -24 392 -41 395 -38 3 3 -19 183 -49
399 -30 217 -53 395 -52 396 1 1 125 -128 276 -287 151 -159 279 -288 284
-287 5 2 104 154 220 339 116 185 212 336 213 334 2 -1 14 -182 29 -402z"/>
</g>
</svg>
