<svg aria-hidden="true" style="position: absolute; width: 0; height: 0; overflow: hidden;" version="1.1" xmlns="http://www.w3.org/2000/svg" xmlns:xlink="http://www.w3.org/1999/xlink">
<defs>
<symbol id="ico_instagram" viewBox="0 0 32 32">
<title>instagram</title>
<path d="M16 0c-4.3 0-4.9 0-6.6 0.1s-2.9 0.3-3.9 0.7c-1.1 0.4-1.9 1-2.8 1.8s-1.5 1.9-1.9 2.9c-0.4 1-0.7 2.2-0.7 3.9-0.1 1.7-0.1 2.3-0.1 6.6s0 4.9 0.1 6.6c0.1 1.7 0.3 2.9 0.7 3.9 0.4 1.1 1 1.9 1.8 2.8 0.9 0.9 1.8 1.4 2.8 1.8s2.2 0.7 3.9 0.7c1.8 0.2 2.4 0.2 6.7 0.2s4.9 0 6.6-0.1c1.7-0.1 2.9-0.3 3.9-0.7 1.1-0.4 1.9-1 2.8-1.8 0.9-0.9 1.4-1.8 1.8-2.8s0.7-2.2 0.7-3.9c0.2-1.8 0.2-2.4 0.2-6.7s0-4.9-0.1-6.6c-0.1-1.7-0.3-2.9-0.7-3.9-0.4-1.1-1-1.9-1.8-2.8-0.9-0.9-1.8-1.4-2.8-1.8s-2.2-0.7-3.9-0.7c-1.8-0.2-2.4-0.2-6.7-0.2zM16 2.9c4.3 0 4.8 0 6.5 0.1 1.6 0.1 2.4 0.3 3 0.6 0.7 0.3 1.3 0.6 1.8 1.2 0.6 0.6 0.9 1.1 1.2 1.8 0.2 0.5 0.5 1.4 0.5 2.9 0.1 1.7 0.1 2.2 0.1 6.5s0 4.8-0.1 6.5c-0.1 1.6-0.3 2.4-0.6 3-0.3 0.7-0.6 1.3-1.2 1.8-0.6 0.6-1.1 0.9-1.8 1.2-0.6 0.2-1.4 0.5-3 0.6-1.7 0.1-2.2 0.1-6.5 0.1s-4.8 0-6.5-0.1c-1.6-0.1-2.4-0.3-3-0.6-0.8-0.3-1.3-0.6-1.8-1.2-0.6-0.6-0.9-1.1-1.2-1.8-0.2-0.6-0.5-1.4-0.6-3-0.1-1.7-0.1-2.2-0.1-6.5s0-4.8 0.1-6.5c0.1-1.6 0.3-2.4 0.6-3 0.3-0.8 0.6-1.3 1.2-1.8 0.6-0.6 1.1-0.9 1.8-1.2 0.6-0.2 1.4-0.5 3-0.6 1.8 0 2.3-0.1 6.6 0v0 0zM16 7.8c-4.5 0-8.2 3.7-8.2 8.2s3.7 8.2 8.2 8.2c4.5 0 8.2-3.7 8.2-8.2s-3.7-8.2-8.2-8.2zM16 21.3c-2.9 0-5.3-2.4-5.3-5.3s2.4-5.3 5.3-5.3 5.3 2.4 5.3 5.3-2.4 5.3-5.3 5.3zM26.5 7.5c0 1.1-0.9 1.9-1.9 1.9-1.1 0-1.9-0.9-1.9-1.9s0.9-1.9 1.9-1.9c1-0.1 1.9 0.8 1.9 1.9z"></path>
</symbol>
<symbol id="ico_discord" viewBox="0 0 32 32">
<title>discord</title>
<path d="M27 0c1.9 0 3.4 1.5 3.5 3.3v28.7l-3.6-3-2-1.8-2.1-1.9 0.9 2.9h-18.8c-1.9 0-3.4-1.4-3.4-3.3v-21.6c0.1-1.8 1.6-3.3 3.5-3.3h22zM18.8 7.6v0l-0.3 0.3c2.8 0.8 4.1 2 4.1 2-1.8-0.9-3.4-1.3-5-1.5-1.2-0.2-2.3-0.1-3.3 0h-0.3c-0.6 0-2 0.3-3.7 1-0.6 0.3-1 0.4-1 0.4s1.3-1.3 4.3-2l-0.2-0.2c0 0-2.2-0.1-4.6 1.7 0 0-2.4 4.2-2.4 9.4 0 0 1.3 2.3 5 2.4 0 0 0.5-0.7 1.1-1.3-2.1-0.6-2.9-1.9-2.9-1.9s0.2 0.1 0.4 0.3h0.1c0 0 0.1 0 0.1 0v0c0 0 0 0 0.1 0 0.4 0.2 0.9 0.4 1.2 0.5 0.6 0.3 1.4 0.5 2.4 0.7 1.2 0.2 2.7 0.3 4.3 0 0.8-0.2 1.6-0.4 2.4-0.7 0.5-0.3 1.2-0.5 1.9-1 0 0-0.8 1.2-2.9 1.9 0.4 0.6 1.1 1.3 1.1 1.3 3.7-0.1 5.1-2.4 5.2-2.3 0-5.2-2.4-9.4-2.4-9.4-2.4-1.5-4.4-1.6-4.7-1.6v0 0zM19 13.5c0.9 0 1.7 0.8 1.7 1.8s-0.8 1.8-1.7 1.8-1.7-0.8-1.7-1.8c0-1 0.8-1.8 1.7-1.8v0zM13 13.5c0.9 0 1.7 0.8 1.7 1.8s-0.8 1.8-1.7 1.8-1.7-0.8-1.7-1.8c0-1 0.7-1.8 1.7-1.8v0z"></path>
</symbol>
<symbol id="ico_facebook" viewBox="0 0 32 32">
<title>facebook</title>
<path d="M32 16c0-8.8-7.2-16-16-16s-16 7.2-16 16c0 8 5.9 14.6 13.5 15.8v-11.2h-4.1v-4.6h4.1v-3.5c0-4 2.4-6.2 6-6.2 1.8 0 3.6 0.3 3.6 0.3v3.9h-2c-2 0-2.6 1.2-2.6 2.5v3h4.4l-0.7 4.6h-3.7v11.2c7.6-1.2 13.5-7.8 13.5-15.8v0z"></path>
</symbol>
<symbol id="ico_hatenabookmark" viewBox="0 0 32 32">
<title>hatenabookmark</title>
<path d="M19.3 16.9c-1.1-1.2-2.5-1.9-4.4-2 1.7-0.5 2.9-1.1 3.7-2s1.1-2.1 1.1-3.6c0-1.1-0.2-2.2-0.8-3.2-0.5-0.9-1.3-1.7-2.3-2.2-0.9-0.5-1.9-0.8-3.1-1s-3.3-0.3-6.3-0.3h-7.2v26.6h7.5c3 0 5.2-0.1 6.5-0.3s2.5-0.6 3.4-1c1.1-0.6 2-1.4 2.6-2.5s0.9-2.3 0.9-3.8c0-1.9-0.5-3.5-1.6-4.7zM6.8 8.6h1.6c1.8 0 3 0.2 3.6 0.6s0.9 1.1 0.9 2.1-0.3 1.6-1 2c-0.7 0.4-1.9 0.6-3.7 0.6h-1.4v-5.3zM12.9 23.9c-0.7 0.4-1.9 0.6-3.6 0.6h-2.5v-5.8h2.7c1.8 0 3 0.2 3.6 0.7s1 1.2 1 2.3c-0.1 1.1-0.4 1.7-1.2 2.2v0zM28.6 22.6c-1.9 0-3.4 1.5-3.4 3.4s1.5 3.4 3.4 3.4 3.4-1.6 3.4-3.4v0c0-1.9-1.5-3.4-3.4-3.4zM25.7 2.7h5.9v17.8h-5.9v-17.8z"></path>
</symbol>
<symbol id="ico_line" viewBox="0 0 32 32">
<title>line</title>
<path d="M25.8 13.2c0.5 0 0.8 0.4 0.8 0.8 0 0.5-0.4 0.8-0.8 0.8h-2.3v1.5h2.3c0.5 0 0.8 0.4 0.8 0.8 0 0.5-0.4 0.8-0.8 0.8h-3.2c-0.5 0-0.8-0.4-0.8-0.8v-6.4c0-0.5 0.4-0.8 0.8-0.8h3.2c0.5 0 0.8 0.4 0.8 0.8 0 0.5-0.4 0.8-0.8 0.8h-2.3v1.5c0 0.2 2.3 0.2 2.3 0.2zM20.7 17.2c0 0.4-0.2 0.7-0.6 0.8-0.1 0-0.2 0-0.3 0-0.3 0-0.5-0.1-0.7-0.3l-3.3-4.4v3.9c0 0.5-0.4 0.8-0.8 0.8-0.5 0-0.8-0.4-0.8-0.8v-6.4c0-0.4 0.2-0.7 0.6-0.8 0.1 0 0.2 0 0.3 0 0.3 0 0.5 0.1 0.7 0.3l3.3 4.4v-3.9c0-0.5 0.4-0.8 0.8-0.8 0.5 0 0.8 0.4 0.8 0.8v6.4zM13 17.2c0 0.5-0.4 0.8-0.8 0.8-0.5 0-0.8-0.4-0.8-0.8v-6.4c0-0.5 0.4-0.8 0.8-0.8 0.5 0 0.8 0.4 0.8 0.8v6.4zM9.7 18h-3.1c-0.5 0-0.8-0.4-0.8-0.8v-6.4c0-0.5 0.4-0.8 0.8-0.8 0.5 0 0.8 0.4 0.8 0.8v5.5h2.3c0.5 0 0.8 0.4 0.8 0.8 0.1 0.5-0.3 0.9-0.8 0.9zM32 13.8c0-7.2-7.2-13-16-13s-16 5.8-16 13c0 6.4 5.7 11.8 13.4 12.8 0.5 0.1 1.2 0.3 1.4 0.8 0.2 0.4 0.1 1 0.1 1.4l-0.2 1.4c-0.1 0.4-0.3 1.6 1.4 0.9s9.2-5.4 12.6-9.3c2.2-2.6 3.3-5.2 3.3-8v0z"></path>
</symbol>
<symbol id="ico_twitter" viewBox="0 0 32 32">
<title>twitter</title>
<path d="M31.9 6.1c-1.2 0.5-2.4 0.9-3.8 1 1.4-0.8 2.4-2.1 2.9-3.6-1.3 0.7-2.7 1.3-4.2 1.6-1.1-1.3-2.8-2.1-4.7-2.1-3.6 0-6.6 2.9-6.6 6.6 0 0.5 0.1 1 0.2 1.5-5.4-0.3-10.3-2.9-13.5-6.9-0.6 1-0.9 2.1-0.9 3.3 0 2.3 1.2 4.3 2.9 5.5-1.1 0-2.1-0.3-3-0.8v0.1c0 3.2 2.3 5.8 5.3 6.4-0.6 0.1-1.1 0.2-1.7 0.2-0.4 0-0.8 0-1.2-0.1 0.8 2.6 3.3 4.5 6.1 4.6-2.2 1.8-5.1 2.8-8.1 2.8-0.5 0-1 0-1.6-0.1 2.9 1.8 6.4 2.9 10.1 2.9 12.1 0 18.7-10 18.7-18.6 0-0.3 0-0.6 0-0.8 1.2-1 2.3-2.2 3.1-3.5v0 0z"></path>
</symbol>
</defs>
</svg>
