<svg xmlns="http://www.w3.org/2000/svg" viewBox="0 0 590.37889 522.52063"><defs><style>.a{fill:#ffecca;}.b{fill:#ffb41e;}</style></defs><title>gamepad</title><path class="a" d="M9.7484,391.09454a48.69616,48.69616,0,0,0-8.43512,2.21216A81.24226,81.24226,0,0,0,9.7484,391.09454Z"/><path class="a" d="M269.95018,48.7735c1.46533,16.11841-2.67676,31.11493-2.11652,46.70831C274.10545,81.768,272.4362,62.44641,269.95018,48.7735Z"/><path class="a" d="M9.7484,391.09454c13.50677-2.4165,28.88946-1.16412,40.67047-9.6148C38.53935,380.24353,22.79338,387.04749,9.7484,391.09454Z"/><path class="a" d="M230.22606,522.52063c5.06707-9.98389,7.62121-21.65869,4.1994-31.19122C229.3864,498.60754,234.74156,513.223,230.22606,522.52063Z"/><path class="a" d="M55.31315,145.90692c11.12238,7.51172,20.91809,21.14075,30.7439,24.30329A9.26966,9.26966,0,0,0,84.35679,167.83C76.9879,158.23755,64.82286,152.32953,55.31315,145.90692Z"/><path class="a" d="M421.14689,441.44537c-9.26464-9.78442-20.38311-20.81048-33.63513-25.0484C395.02708,427.86816,411.67082,431.43774,421.14689,441.44537Z"/><path class="a" d="M330.85563,498.09161a34.093,34.093,0,0,0,3.44465,7.018A44.89646,44.89646,0,0,0,330.85563,498.09161Z"/><path class="a" d="M520.78959,253.66278c-5.37506-6.10651-9.03894-15.59308-14.31445-18.96588a5.59343,5.59343,0,0,0,.61432,1.64453C509.94835,243.103,516.18809,248.43506,520.78959,253.66278Z"/><path class="a" d="M475.727,5.70856c-4.50146,5.08435-7.77118,11.54321-7.22626,17.66192C472.55687,19.85748,471.65678,10.47162,475.727,5.70856Z"/><path class="a" d="M585.08952,116.64673c-8.30035-.64807-17.14062-3.73792-25.35187-.58331C566.526,118.60638,576.81,117.02582,585.08952,116.64673Z"/><path class="a" d="M351.19163,24.09222c3.94116,7.1612,8.78522,15.3263,15.91358,19.84522C364.44151,36.0589,355.22209,31.41571,351.19163,24.09222Z"/><path class="a" d="M412.88987,4.64911A20.69028,20.69028,0,0,0,411.94133,0,27.24329,27.24329,0,0,0,412.88987,4.64911Z"/><path class="a" d="M590.37889,116.63879a49.30939,49.30939,0,0,0-5.28937.00794A29.55114,29.55114,0,0,0,590.37889,116.63879Z"/><path class="a" d="M343.70807,337.49646c-16.10327-6.55084-34.14221-7.23011-51.31006-7.5232-17.41284-.29742-35.37329.92408-51.66614,7.56873-9.48028,3.86658-18.1687,11.63794-27.07428,16.80048-9.84277,5.70581-20.12329,10.75866-31.04681,14.0382-11.71527,3.51722-24.20166,4.94867-36.25458,2.86432-16.95666-2.93243-35.25061-13.48364-42.49805-29.63983-4.45153-9.92334-5.07983-21.09778-5.13427-31.97369a368.59729,368.59729,0,0,1,14.1532-101.97321,471.2223,471.2223,0,0,1,20.08154-57.84241q-1.15238.42618-2.34863.78656c-15.93226,3.08716-28.5705-12.37194-37.52015-23.03436,1.53968,7.9657,5.728,17.14118,7.60352,25.043s1.43787,14.52991-6.271,17.40112a11.80288,11.80288,0,0,1-8.36529.198c3.66546,7.31671-2.76831,18.63367-10.861,21.43543-7.96613,1.54358-17.47583-4.879-24.88605-7.57575,8.95379,10.66291,16.83716,22.91071,16.75439,36.70209C62.61725,254.69464,23.93976,247.03613,0,258.5625c17.00269-4.67206,34.993,2.8623,44.51886,16.13214a54.54015,54.54015,0,0,1,9.15582,22.71448c1.21161,8.03045.36743,16.11486-3.12182,22.98986-9.63379,14.26453-25.566,17.35169-37.81391,25.23505,11.65058,3.25269,23.857,2.265,34.43714,7.1026,7.92474,5.35211,13.66729,20.7699,4.07483,28.13873-.274.21045-.554.40491-.832.60437,7.41449.77155,13.324,4.67231,16.12561,14.34021,4.199,7.4516-5.39349,14.82044-12.84509,19.01941,6.38117-2.614,14.86182-1.50219,22.09461-2.38708,7.22247.839,13.96881,3.66437,19.23822,9.53106,21.07745,23.46662,2.88025,50.41077-5.21,72.64142,8.28547-10.55944,18.83-21.901,30.88117-29.05822a50.24824,50.24824,0,0,1,19.11255-6.97687c22.38147-2.78449,46.1557,13.27191,45.47564,38.19934,9.63386-14.26453,25.64887-31.14307,42.52741-15.128a22.99142,22.99142,0,0,1,6.60651,9.66845c1.55407-2.24456,4.085-3.79962,8.214-4.275,17.51721-2.01672,18.4635,17.08545,24.7619,28.26288-6.81293-13.83276-.349-30.23822,10.82837-36.53662,18.91333-9.78516,41.87829,1.40295,52.62591,19.31091-3.83624-10.75647-2.12884-22.78906,3.01874-32.50366a53.72161,53.72161,0,0,1,11.95416-16.95264,38.72383,38.72383,0,0,1,16.98285-9.66186c10.62152-2.05811,21.71619,5.43493,27.50006,13.95691a108.53074,108.53074,0,0,1-15.684-38.28705,36.1205,36.1205,0,0,1,12.88428,1.75366,23.86974,23.86974,0,0,1-3.80646-11.778c.556-4.24024,1.11188-8.48059,3.25275-11.65046,6.93707-6.85437,16.48816-7.32751,25.48334-3.5603-6.33979-4.28174-11.09467-7.493-16.23536-12.6958a42.73273,42.73273,0,0,1-7.73791-13.39728,176.98392,176.98392,0,0,1-17.67126-9.04266C361.88678,349.11792,353.19147,341.35431,343.70807,337.49646Z"/><path class="a" d="M244.48352,91.34405c-1.00049,2.06-1.92236,4.103-2.82068,6.12067q1.478.98547,2.9563,2.00159A31.36165,31.36165,0,0,1,244.48352,91.34405Z"/><path class="a" d="M316.58051,112.76581c-15.68061-3.49109-26.22284-21.30573-21.767-39.129-7.65027,13.38788-9.56281,28.68835-24.86328,36.33862a63.18855,63.18855,0,0,1-2.11652-14.49359,27.352,27.352,0,0,1-10.64356,12.38635,70.56391,70.56391,0,0,0,35.02228,9.38049A70.0258,70.0258,0,0,0,316.58051,112.76581Z"/><path class="b" d="M229.6778,208.27221H215.11664a3.62071,3.62071,0,0,1-3.61011-3.6101V190.10986a3.62067,3.62067,0,0,0-3.61011-3.61005H189.19586a3.62067,3.62067,0,0,0-3.61011,3.61005v14.55225a3.61717,3.61717,0,0,1-3.6101,3.60717l-14.5434-.01184a3.61715,3.61715,0,0,0-3.61011,3.60718v18.73615a3.62068,3.62068,0,0,0,3.61011,3.6101h14.5434a3.62074,3.62074,0,0,1,3.6101,3.61005v14.53455a3.62072,3.62072,0,0,0,3.61011,3.6101h18.71839a3.62069,3.62069,0,0,0,3.61-3.6101V237.7854a3.6208,3.6208,0,0,1,3.61011-3.61011h14.5434a3.62071,3.62071,0,0,0,3.6101-3.61011V211.88232A3.62075,3.62075,0,0,0,229.6778,208.27221Z"/><path class="a" d="M339.34521,99.3977c-10.28277,3.08039-22.7127,1.93976-32.37579-.81469,6.34552,4.84014,15.254,4.61608,22.406,7.86261q2.32773-1.461,4.53576-3.10224Q336.63233,101.31678,339.34521,99.3977Z"/><circle class="b" cx="350.37424" cy="221.23266" r="15.40841" transform="translate(-57.99139 150.92255) rotate(-22.49997)"/><circle class="b" cx="413.32919" cy="221.23266" r="15.40841" transform="translate(-53.19924 175.01434) rotate(-22.49997)"/><path class="a" d="M546.84607,179.68176a33.10064,33.10064,0,0,1-1.89941-14.74133,23.16407,23.16407,0,0,1,5.35308-13.02338c7.84156-6.90228,17.67078-6.27606,26.07056-9.03064-6.34412-3.69391-13.66382-4.98267-19.1366-9.44342-3.83459-4.35644-4.84662-14.29,1.915-17.149.19574-.08276.39252-.15509.589-.23059-4.2384-1.5877-7.11737-4.77887-7.28253-10.88739-1.32514-5.019,5.43646-7.87793,10.45544-9.20306-4.1477.55823-8.95794-1.39313-13.34106-1.98078a17.96484,17.96484,0,0,1-9.83887-8.54266c-8.78558-17.0083,6.02631-30.0459,14.181-41.86279-6.48242,4.9328-14.41138,9.97906-22.58447,12.33728a30.49478,30.49478,0,0,1-12.29242,1.1712c-13.57037-1.79132-25.07416-14.86059-20.8584-29.39575-7.84155,6.90228-19.83087,14.36273-27.29132,2.37347a13.93238,13.93238,0,0,1-2.38428-6.70245,6.51469,6.51469,0,0,1-5.49365,1.266c-10.59613-1.4975-8.22736-12.86059-10.215-20.389,1.88324,9.16663-4.4245,17.81147-11.95294,19.79914-12.60528,2.851-24.37909-7.23523-27.94928-19.39746a24.87063,24.87063,0,0,1-6.74914,18.62609,32.6042,32.6042,0,0,1-9.61579,8.12568A23.50207,23.50207,0,0,1,385.07214,34.475c-6.55285-.41748-11.92126-6.51648-14.01324-12.40674A65.86784,65.86784,0,0,1,374.408,46.9544a21.91333,21.91333,0,0,1-7.30274-3.017,14.4851,14.4851,0,0,1,.43683,7.51416c-.9757,2.40509-1.95135,4.81018-3.69391,6.344-5.12335,2.96332-10.80487,1.77893-15.51074-1.81061a58.84758,58.84758,0,0,1,7.59088,9.94153A24.73112,24.73112,0,0,1,358.448,78.01227a26.23712,26.23712,0,0,1-5.75128,13.08587,70.89484,70.89484,0,0,1,17.01788-6.39783c9.06061-2.09051,18.62463-2.72271,27.62225-.37542,15.26477,3.98218,27.2298,16.07953,35.52875,29.49585,17.48846,28.27185,29.53491,61.80511,38.58124,93.67791q4.507,15.87982,7.63238,32.11518c8.6659,1.75555,13.3208,11.88122,16.71747,19.03534.31531-4.91376-.73962-10.94348-.63128-15.87116s1.38006-8.75317,6.34686-9.25915a7.16966,7.16966,0,0,1,4.96289,1.178c-1.04773-4.86164,4.45312-10.53241,9.64026-10.93927,4.91461.31311,9.51611,5.54083,13.45508,8.259-3.62586-7.63281-6.38044-16.03259-4.22034-24.11926,7.80524-19.241,29.347-8.82184,45.17084-11.92584C559.8205,196.11224,550.40875,188.93322,546.84607,179.68176Z"/><path class="a" d="M154.32489,88.15075A41.78768,41.78768,0,0,1,159.2641,103.064c1.07959-1.26922,2.19391-2.50537,3.35095-3.6961A55.86279,55.86279,0,0,0,154.32489,88.15075Z"/><circle class="b" cx="381.83905" cy="189.41317" r="15.40846"/><circle class="b" cx="381.83905" cy="251.32943" r="15.40846"/><path class="b" d="M331.1521,111.88794c1.39374-.3982,2.75568-.84711,4.09949-1.325a18.01745,18.01745,0,0,0-5.87616-4.1173,70.74279,70.74279,0,0,1-12.79492,6.32019A27.05,27.05,0,0,0,331.1521,111.88794Z"/><path class="b" d="M352.69672,91.09814a118.08407,118.08407,0,0,0-13.35151,8.29956A27.416,27.416,0,0,0,352.69672,91.09814Z"/><path class="b" d="M159.2641,103.064a88.92812,88.92812,0,0,0-7.88916,10.8819,276.62261,276.62261,0,0,0-18.41632,35.86993C152.04889,142.7561,161.85431,122.10339,159.2641,103.064Z"/><path class="b" d="M249.67047,111.00134a27.91375,27.91375,0,0,0,7.51965-3.13318c-1.69195-.97076-3.34716-2.005-4.95123-3.11462-2.58789-1.79016-5.10956-3.56458-7.61975-5.28723C245.48059,105.76391,247.81537,111.36126,249.67047,111.00134Z"/><path class="b" d="M453.80023,272.42291c-5.92657-10.2467-3.45343-23.248-14.50342-30.53137a20.62584,20.62584,0,0,0-10.769-3.42322,23.02117,23.02117,0,0,0-10.44482,2.38013c-.50739.21777-.9953.45031-1.46949.69342a75.02055,75.02055,0,0,0-13.38714,14.99774c-7.16107,11.03033-9.225,23.4837,1.31378,35.217,15.80811,17.6,38.1629,5.00311,56.15326,12.53747-31.82312-.72137-77.52045,12.26581-73.52838,54.196a35.33156,35.33156,0,0,0,1.30316,4.82513,117.63658,117.63658,0,0,0,13.38806,4.9679c11.71845,3.50683,24.20606,4.92724,36.25714,2.83209,16.954-2.94757,35.23865-13.51495,42.47162-29.67761,4.44269-9.92731,5.061-21.10224,5.10577-31.97827a362.102,362.102,0,0,0-6.61151-69.84546,13.24463,13.24463,0,0,0-1.79058-.23645C460.80225,239.97192,449.825,257.366,453.80023,272.42291Z"/><path class="b" d="M190.14008,130.80224a33.98625,33.98625,0,0,0,18.59326.98188,37.93233,37.93233,0,0,0,15.66418-8.13642c9.0752-7.05066,12.85883-16.28576,17.26532-26.183-8.311-5.54114-16.71814-10.29517-27.1626-12.69525-9.0625-2.08258-18.62719-2.70618-27.6228-.35095-9.36163,2.45111-17.47265,7.962-24.26239,14.9494C169.88147,111.75207,174.52374,125.49249,190.14008,130.80224Z"/></svg>