<?xml version="1.0" encoding="utf-8"?>
<svg version="1.1" xmlns="http://www.w3.org/2000/svg" xmlns:xlink="http://www.w3.org/1999/xlink" x="0px" y="0px" xml:space="preserve">
<symbol viewBox="0 0 839.7 192.5" id="jmslogo">
  <g>
    <path d="M289.6,76.7v-2.8c0-3.7-2.4-6.5-11-6.5c-4.6,0-12.7,1-18,2.5V56.6c7.3-1.5,15.9-2.3,22-2.3c14.3,0,23.1,6.9,23.1,20.7v36.2
      H292l-1.2-5.4h-0.4c-6,4.2-11.6,6.3-17.1,6.3c-9.7,0-17.4-6.1-17.4-18.1c0-10.2,7.5-17.2,21.6-17.2L289.6,76.7L289.6,76.7z
      M289.6,87.2h-9.2c-5.7,0-8.2,1.9-8.2,5.4c0,4,2.8,6,6.7,6c3.9,0,7.8-1.2,10.7-2.9L289.6,87.2L289.6,87.2z"/>
    <path d="M342.8,112.3c-16.5,0-28.5-9.2-28.5-29s12-29.1,28.5-29.1c16.5,0,28.6,9.5,28.6,29.1C371.3,102.8,359.2,112.3,342.8,112.3z
      M342.9,68c-8.7,0-12,5.4-12,15.3s3.3,15.3,12,15.3s11.9-5.3,11.9-15.3S351.5,68,342.9,68z"/>
  </g>
  <g>
    <path d="M280.8,173.9l-10.1-38.1h-0.6v37.9h-11.3v-51.8h19l9.9,37.9h0.7l10.1-37.9H317v51.8h-11.2v-37.9h-0.6l-10.5,38.1H280.8z"/>
    <path d="M337.9,129.8h-11.8v-10.2h11.8V129.8z M337.7,173.8h-11.5v-39.7h11.5V173.8z"/>
    <path d="M370.5,173.8v-26.3c0-2.6-0.9-3.9-3.7-3.9c-2.6,0-6.1,1.4-9.1,2.9v27.2h-11.5v-39.7H357v4h0.3c4.7-2.9,9.2-4.8,13.1-4.8
      c7,0,11.7,3.3,11.7,12v28.5L370.5,173.8L370.5,173.8z"/>
    <path d="M424.7,172.1c-5.5,1.6-10.6,2.5-16.1,2.5c-13.3,0-20.3-6.5-20.3-20.7c0-14.1,7.7-20.7,19.4-20.7c13.8,0,17.6,8.7,17.6,18.7
      v5.1h-25c0.1,5.7,4.3,7.6,11.2,7.6c3.2,0,8.7-1,13.2-2.3L424.7,172.1L424.7,172.1z M413.7,148.9c-0.1-3-1.1-6.7-6.7-6.7
      c-4.3,0-6.8,3.2-6.8,6.7H413.7z"/>
    <path d="M462.7,163v9.9c-4.1,1.2-7.9,1.7-12.5,1.7c-9.9,0-20.1-4.4-20.1-20.7s10.2-20.7,20.1-20.7c4.6,0,8.4,0.5,12.5,1.7v9.9
      c-3.5-1.1-7.2-1.7-10.6-1.7c-6.5,0-10.3,2.6-10.3,10.7c0,6.3,3,10.7,10.3,10.7C455.5,164.7,459.2,164,462.7,163z"/>
    <path d="M494.7,145.7c-4.8,0.8-8.7,2.2-13.5,3.8v24.3h-11.5v-39.7h10.9v6.2c4-2.6,8.3-6.3,14.2-6.4V145.7z"/>
    <path d="M521.2,149.2v-2c0-2.7-1.7-4.6-7.8-4.6c-3.3,0-9.1,0.7-12.8,1.8v-9.5c5.2-1.1,11.3-1.7,15.7-1.7c10.2,0,16.5,4.9,16.5,14.8
      v25.8h-9.8l-0.9-3.9h-0.3c-4.3,3-8.3,4.5-12.2,4.5c-6.9,0-12.4-4.3-12.4-12.9c0-7.3,5.3-12.2,15.4-12.2L521.2,149.2L521.2,149.2z
      M521.2,156.7h-6.5c-4,0-5.8,1.4-5.8,3.9c0,2.9,2,4.3,4.8,4.3c2.8,0,5.5-0.9,7.6-2.1L521.2,156.7L521.2,156.7z"/>
    <path d="M565.8,127.9c-2.6-0.4-4.6-0.5-6-0.5c-4.7,0-5.8,1.2-5.8,4.5c0,0.2,0,1.9,0,2.2h10.6v9.7h-10.2v29.9H543v-29.9h-4.8V135
      l4.8-0.9v-4.3c0-8.8,4.1-11.9,13.2-11.9c2.7,0,6,0.2,9.6,0.7L565.8,127.9L565.8,127.9z"/>
    <path d="M582.9,160.4c0,3.2,2.2,4,4.8,4c1.7,0,3.6-0.4,5.3-0.7v9.6c-3.3,0.7-8,1.2-11.2,1.2c-5.4,0-10.3-1.7-10.3-9.9v-20.8h-4.8
      V136l11.4-10.8h5v8.9h11.5v9.7h-11.5L582.9,160.4L582.9,160.4z"/>
    <path d="M640.4,158.4c0-4.9-5.2-5.1-10.8-6.1c-6.8-1.1-14.3-3.5-14.3-15.3c0-13.1,10.6-16,20.7-16c5.1,0,9.8,0.7,14.3,1.1v10.4
      c-4-0.6-9.3-1.4-13.9-1.4c-6.9,0-9,2.4-9,5.5c0,4.2,4.1,4.7,9.1,5.5c7.6,1.1,16.2,2.4,16.2,15.7c0,12.5-9.1,16.8-20.5,16.8
      c-6.1,0-11.3-0.7-16.1-1.7v-10.4c5.1,0.9,10.7,1.9,15.2,1.9C637.3,164.6,640.4,162.4,640.4,158.4z"/>
    <path d="M693.5,172.1c-5.5,1.6-10.6,2.5-16.1,2.5c-13.3,0-20.3-6.5-20.3-20.7c0-14.1,7.7-20.7,19.4-20.7c13.8,0,17.6,8.7,17.6,18.7
      v5.1h-25c0.1,5.7,4.3,7.6,11.2,7.6c3.2,0,8.7-1,13.2-2.3L693.5,172.1L693.5,172.1z M682.5,148.9c-0.1-3-1.2-6.7-6.7-6.7
      c-4.3,0-6.8,3.2-6.8,6.7H682.5z"/>
    <path d="M726,145.7c-4.8,0.8-8.7,2.2-13.5,3.8v24.3H701v-39.7h10.9v6.2c4-2.6,8.3-6.3,14.2-6.4V145.7z"/>
    <path d="M739.3,134.1l8,27.1h0.4l7.8-27.1h12l-12.8,39.7h-14.9L727,134.1H739.3z"/>
    <path d="M806.3,172.1c-5.5,1.6-10.6,2.5-16.1,2.5c-13.3,0-20.3-6.5-20.3-20.7c0-14.1,7.7-20.7,19.4-20.7c13.8,0,17.6,8.7,17.6,18.7
      v5.1h-25c0.1,5.7,4.3,7.6,11.2,7.6c3.2,0,8.7-1,13.2-2.3L806.3,172.1L806.3,172.1z M795.3,148.9c-0.1-3-1.2-6.7-6.7-6.7
      c-4.3,0-6.8,3.2-6.8,6.7H795.3z"/>
    <path d="M838.8,145.7c-4.8,0.8-8.7,2.2-13.5,3.8v24.3h-11.5v-39.7h10.9v6.2c4-2.6,8.3-6.3,14.2-6.4V145.7z"/>
  </g>
  <path d="M171.1,161.8c0,0,13,14.8,29.4,14.4s27.3-9.3,32.9-19.2s6.3-22,6.5-31.6s0-21.3,0-26.5S238,54.2,238,54.2l12,5.9l-9.1-17.3
    l19-4.6l-18.1-7.3l11.6-15.7l-18.6,6l-1.2-19.5l-10.4,16.5L209.7,4.1l2.7,19.3l-19.4-2.2l14.5,13.1l-16.3,10.8l19.5,0.7l-5.5,18.7
    l11.6-9.1l0.9,19.3c0,0,2.1,40.6,0.9,55.1s-4.2,20.9-12.3,24.3s-15.8-3-15.8-3s-3.8-3.7-4.8-4.8c-1-1.1-2.5-3.2-2.5-3.2
    c1.1-1.4,2-2.8,2.9-4.2c1.2-2.6,1.6-5.4,1-8.2c-0.9-4.1-3.6-6.7-7-8.8l-1.8-1.2c-0.7-0.4,1.3-7.7,1.5-8.5c0.9-3.7,1.4-7.4,1.7-11.2
    c0.4-7.9-0.3-15.8-1.9-23.5c-3.3-15.5-10.5-30-20.9-42c-4.4-5-9.3-9.5-14.6-13.4C117.2,2.9,79.5-0.1,50,14.7S0.5,61.6,0,94.6
    s18.7,65.6,47.8,81.2c28.3,15.2,67.4,14.5,93.9-4.7c2.5-1.8,5.1-3.7,7.6-5.6c-0.1,0.1,5.9,3.3,6.6,3.5c2.5,0.8,5.1,0.8,7.6,0
    C166.9,167.8,169.6,165.1,171.1,161.8z"/>
</symbol>
</svg>